<?xml version="1.0" standalone="no"?>
<!DOCTYPE svg PUBLIC "-//W3C//DTD SVG 1.1//EN" "http://www.w3.org/Graphics/SVG/1.1/DTD/svg11.dtd" >
<svg xmlns="http://www.w3.org/2000/svg">
<metadata>Generated by IcoMoon</metadata>
<defs>
<font id="paulus" horiz-adv-x="1024">
<font-face units-per-em="1024" ascent="960" descent="-64" />
<missing-glyph horiz-adv-x="1024" />
<glyph unicode="&#x20;" horiz-adv-x="512" d="" />
<glyph unicode="&#xe900;" glyph-name="icon_01" d="M972.8 84.945l-172.218 172.218c51.2 74.473 83.782 162.909 83.782 260.655 0 242.036-200.145 442.182-442.182 442.182s-442.182-200.145-442.182-442.182 200.145-442.182 442.182-442.182c97.745 0 186.182 32.582 260.655 83.782l172.218-172.218c13.964-13.964 32.582-18.618 51.2-18.618s37.236 4.655 51.2 18.618c23.273 27.927 23.273 69.818-4.655 97.745zM139.636 517.818c0 167.564 134.982 302.545 302.545 302.545s302.545-134.982 302.545-302.545c0-79.127-32.582-148.945-79.127-204.8-4.655-4.655-9.309-4.655-13.964-4.655s-4.655-4.655-4.655-9.309c-55.855-51.2-125.673-79.127-204.8-79.127-167.564-4.655-302.545 130.327-302.545 297.891z" />
<glyph unicode="&#xe901;" glyph-name="icon_02" d="M446.638 49.294v0c-32.681 4.357-63.183-19.609-67.54-52.289-2.179-23.966 8.715-50.111 32.681-61.004 6.536-2.179 13.072-4.357 19.609-6.536h15.251c2.179 0 6.536 2.179 8.715 2.179 32.681 8.715 50.111 41.396 43.574 74.077-6.536 23.966-28.323 41.396-52.289 43.574zM729.872 49.294c-32.681 4.357-63.183-19.609-67.54-52.289-2.179-23.966 8.715-50.111 32.681-61.004 6.536-2.179 13.072-4.357 19.609-6.536h15.251l6.536 2.179c28.323 6.536 47.932 32.681 45.753 63.183-2.179 28.323-23.966 50.111-52.289 54.468zM875.847 469.787h-549.038c-8.715 0-13.072 2.179-15.251 10.894-21.787 89.328-45.753 178.655-67.54 267.983-2.179 17.43-17.43 28.323-32.681 28.323h-91.506c-15.251 0-30.502-13.072-32.681-28.323s10.894-32.681 28.323-32.681c2.179 0 2.179 0 4.357 0h50.111c4.357 0 8.715-2.179 10.894-6.536 0 0 0 0 0 0 47.932-189.549 93.685-379.098 141.617-570.826 6.536-23.966 15.251-32.681 39.217-32.681h429.209c19.609-2.179 37.038 10.894 41.396 30.502 28.323 84.97 54.468 169.94 82.791 254.911 8.715 26.145 17.43 54.468 26.145 80.613-21.787-2.179-43.574-2.179-65.362-2.179zM359.489 319.455c-6.536 0-10.894 2.179-10.894 8.715-6.536 26.145-13.072 52.289-19.609 80.613h126.366c2.179-28.323 4.357-58.826 6.536-87.149-4.357 0-6.536 0-8.715 0-32.681-2.179-61.004-2.179-93.685-2.179zM457.532 166.945h-61.004c-2.179 0-6.536 2.179-8.715 4.357-6.536 28.323-15.251 56.647-21.787 84.97h91.506c4.357 0 8.715-4.357 8.715-4.357 2.179-28.323 4.357-54.468 4.357-82.791-4.357-2.179-8.715-2.179-13.072-2.179zM623.115 166.945h-63.183c-26.145 0-26.145 0-28.323 26.145 0 15.251-2.179 30.502-4.357 45.753v17.43h104.579c-2.179-30.502-6.536-58.826-8.715-89.328zM638.366 319.455h-115.472c-2.179 28.323-4.357 58.826-6.536 89.328h130.723c-2.179-30.502-4.357-58.826-8.715-89.328v0zM771.268 171.302v0c-2.179-2.179-4.357-4.357-6.536-4.357h-76.255c0 0 0 0-2.179 2.179 4.357 28.323 6.536 58.826 8.715 87.149h102.4c-8.715-30.502-17.43-56.647-26.145-84.97zM823.557 334.706v0c-6.536-19.609 0-17.43-21.787-17.43h-98.043c4.357 30.502 6.536 58.826 8.715 89.328h135.081c-8.715-23.966-17.43-45.753-23.966-71.898zM440.102 528.613c41.396-17.43 87.149-23.966 132.902-17.43 13.072 2.179 26.145 2.179 39.217 2.179 39.217-6.536 80.613-4.357 119.83 6.536 58.826 13.072 102.4 61.004 115.472 119.83-47.932 13.072-100.221 8.715-145.974-10.894-45.753-21.787-80.613-61.004-100.221-106.757-19.609 45.753-54.468 84.97-100.221 106.757-45.753 19.609-98.043 23.966-145.974 10.894 8.715-50.111 41.396-91.506 84.97-111.115zM444.46 674.587c54.468-45.753 124.187-65.362 193.906-54.468 41.396 6.536 80.613 21.787 113.294 45.753 39.217 30.502 58.826 78.434 54.468 126.366-47.932 2.179-93.685-13.072-132.902-41.396-37.038-28.323-63.183-71.898-69.719-117.651-8.715 45.753-34.86 89.328-71.898 117.651-39.217 28.323-84.97 41.396-132.902 39.217-6.536-41.396 10.894-84.97 45.753-115.472zM596.97 737.77c2.179 0 6.536 0 8.715 0 15.251 6.536 32.681 13.072 47.932 21.787 34.86 17.43 65.362 43.574 87.149 76.255 21.787 37.038 23.966 82.791 6.536 122.009-74.077-21.787-128.545-61.004-148.153-141.617-17.43 82.791-71.898 122.009-145.974 143.796 0-2.179-2.179-2.179-2.179-4.357-17.43-47.932-8.715-102.4 26.145-141.617 32.681-34.86 74.077-61.004 119.83-76.255z" />
<glyph unicode="&#xe902;" d="M0 960h1024v-1024h-1024v1024z" />
<glyph unicode="&#xe903;" d="M342.851 24.536h-255.609v103.006h76.301v186.934h179.308v-103.006h-76.301v-83.928h76.301z" />
<glyph unicode="&#xe904;" d="M297.081 422.575c0-39.327-31.881-71.208-71.208-71.208s-71.208 31.881-71.208 71.208c0 39.323 31.873 71.201 71.194 71.208h0.001c38.982-0.848 70.361-32.227 71.207-71.129l0.001-0.080z" />
<glyph unicode="&#xe905;" d="M426.779 127.542h76.301v83.928h-76.301v103.006h179.308v-186.934h76.301v-103.006h-255.609z" />
<glyph unicode="&#xe906;" d="M473.843 422.575c0-39.327 31.881-71.208 71.208-71.208s71.208 31.881 71.208 71.208c0 39.327-31.881 71.208-71.208 71.208v0c-38.982-0.848-70.361-32.227-71.207-71.129l-0.001-0.080z" />
<glyph unicode="&#xe907;" d="M186.435 807.882l-5.093-12.719h-19.065l26.705 69.942h20.345l26.705-69.942h-19.079l-5.093 12.719zM199.155 844.76v0l-7.626-22.905h15.212z" />
<glyph unicode="&#xe908;" d="M291.975 800.296c0.199-1.172 0.313-2.521 0.313-3.897 0-13.469-10.919-24.387-24.387-24.387-1.376 0-2.726 0.114-4.040 0.333l0.142-0.020c-11.439 0-25.438 5.093-26.705 17.799h19.079c0-1.267 1.267-2.547 2.547-3.813 1.199-0.82 2.682-1.31 4.278-1.31 0.287 0 0.571 0.016 0.849 0.047l-0.034-0.003c8.906 0 11.439 6.36 11.439 13.986v2.547c-3.829-3.926-9.171-6.36-15.081-6.36-0.065 0-0.13 0-0.195 0.001h0.010c-0.178-0.005-0.387-0.008-0.597-0.008-12.36 0-22.38 10.020-22.38 22.38 0 0.629 0.026 1.252 0.077 1.867l-0.005-0.081c-0.011 0.278-0.018 0.604-0.018 0.931 0 13.413 10.798 24.303 24.175 24.453h0.014c0.33 0.024 0.715 0.038 1.104 0.038 5.241 0 9.899-2.493 12.853-6.358l0.029-0.039v5.093h16.532v-43.197zM253.831 819.375c0-6.36 3.813-10.173 11.439-10.173 0.082-0.002 0.18-0.003 0.277-0.003 5.827 0 10.616 4.446 11.159 10.131l0.003 0.045c0 6.36-3.813 10.173-11.439 10.173-0.674 0.175-1.447 0.276-2.244 0.276-5.12 0-9.27-4.15-9.27-9.27 0-0.416 0.027-0.825 0.080-1.226l-0.005 0.047z" />
<glyph unicode="&#xe909;" d="M319.96 835.853v0c2.831 5.34 8.355 8.915 14.714 8.915 0.194 0 0.387-0.003 0.58-0.010l-0.028 0.001h3.813v-16.532c-1.882 0.831-4.077 1.314-6.385 1.314-0.437 0-0.869-0.017-1.297-0.051l0.056 0.004c-8.906 0-11.439-6.36-11.439-13.986v-19.079h-16.546v47.064h16.532z" />
<glyph unicode="&#xe90a;" d="M363.197 861.292c0-4.919-3.987-8.906-8.906-8.906s-8.906 3.987-8.906 8.906c0 4.919 3.987 8.906 8.906 8.906v0c3.813 1.267 8.906-3.813 8.906-8.906zM361.93 796.429h-16.532v47.064h16.532z" />
<glyph unicode="&#xe90b;" d="M416.606 861.292c0-4.919-3.987-8.906-8.906-8.906s-8.906 3.987-8.906 8.906c0 4.919 3.987 8.906 8.906 8.906v0c5.093 1.267 8.906-3.813 8.906-8.906zM416.606 796.429h-16.532v47.064h16.532z" />
<glyph unicode="&#xe90c;" d="M444.591 837.133v0c2.73 4.658 7.712 7.737 13.413 7.737 0.653 0 1.296-0.040 1.928-0.119l-0.076 0.008c12.719 0 17.799-7.626 17.799-20.345v-29.251h-16.532v22.905c0 5.093 1.267 12.719-7.626 12.719-6.36 0-8.906-5.093-8.906-11.439v-24.158h-16.532v48.303h16.532z" />
<glyph unicode="&#xe90d;" d="M506.92 796.443h-16.546v33.064h-6.36v13.986h6.36v13.986h16.546v-13.986h8.906v-13.986h-8.906z" />
<glyph unicode="&#xe90e;" d="M570.489 816.788h-35.611c-0.020-0.231-0.032-0.501-0.032-0.773 0-5.209 4.223-9.432 9.432-9.432 0.272 0 0.541 0.012 0.807 0.034l-0.035-0.002c0.285-0.037 0.614-0.059 0.949-0.059 2.843 0 5.326 1.542 6.657 3.835l0.020 0.037h16.546c-2.991-9.686-11.865-16.602-22.354-16.602-0.635 0-1.264 0.025-1.887 0.075l0.082-0.005c-0.776-0.084-1.676-0.132-2.587-0.132-14.027 0-25.398 11.371-25.398 25.398 0 0.056 0 0.112 0.001 0.168v-0.009c-0.002 0.128-0.004 0.28-0.004 0.431 0 13.841 11.22 25.061 25.061 25.061 0.58 0 1.155-0.020 1.725-0.058l-0.077 0.004c0.553 0.046 1.197 0.072 1.847 0.072 13.134 0 23.781-10.647 23.781-23.781 0-1.056-0.069-2.096-0.202-3.116l0.013 0.12v-1.267zM555.224 826.961c-1.335 4.435-5.383 7.611-10.173 7.611s-8.837-3.175-10.153-7.536l-0.019-0.075z" />
<glyph unicode="&#xe90f;" d="M578.115 872.744h16.532v-77.568h-16.532v77.568z" />
<glyph unicode="&#xe910;" d="M606.087 872.744h16.532v-77.568h-16.532v77.568z" />
<glyph unicode="&#xe911;" d="M651.87 861.292c0-4.919-3.987-8.906-8.906-8.906s-8.906 3.987-8.906 8.906c0 4.919 3.987 8.906 8.906 8.906v0c5.093 1.267 8.906-3.813 8.906-8.906zM651.87 796.429h-16.532v47.064h16.532z" />
<glyph unicode="&#xe912;" d="M714.173 800.296c0.199-1.172 0.313-2.521 0.313-3.897 0-13.469-10.919-24.387-24.387-24.387-1.376 0-2.726 0.114-4.040 0.333l0.142-0.020c-11.439 0-25.438 5.093-26.705 17.799h19.079c0-1.267 1.267-2.547 2.547-3.813 1.199-0.82 2.682-1.31 4.278-1.31 0.287 0 0.571 0.016 0.849 0.047l-0.034-0.003c8.906 0 11.439 6.36 11.439 13.986v2.547c-3.829-3.926-9.171-6.36-15.081-6.36-0.065 0-0.13 0-0.195 0.001h0.010c-0.178-0.005-0.387-0.008-0.597-0.008-12.36 0-22.38 10.020-22.38 22.38 0 0.629 0.026 1.252 0.077 1.867l-0.005-0.081c-0.011 0.278-0.018 0.604-0.018 0.931 0 13.413 10.798 24.303 24.175 24.453h0.014c0.33 0.024 0.715 0.038 1.104 0.038 5.241 0 9.899-2.493 12.853-6.358l0.029-0.039v5.093h16.532v-43.197zM676.029 819.375c0-6.36 3.813-10.173 11.439-10.173 0.082-0.002 0.18-0.003 0.277-0.003 5.827 0 10.616 4.446 11.159 10.131l0.003 0.045c0 6.36-3.813 10.173-11.439 10.173-0.52 0.099-1.118 0.155-1.73 0.155-5.373 0-9.728-4.355-9.728-9.728 0-0.211 0.007-0.42 0.020-0.628l-0.001 0.028z" />
<glyph unicode="&#xe913;" d="M773.955 816.788h-35.611c-0.020-0.231-0.032-0.501-0.032-0.773 0-5.209 4.223-9.432 9.432-9.432 0.272 0 0.541 0.012 0.807 0.034l-0.035-0.002c0.285-0.037 0.614-0.059 0.949-0.059 2.843 0 5.326 1.542 6.657 3.835l0.020 0.037h16.546c-2.991-9.686-11.865-16.602-22.354-16.602-0.635 0-1.264 0.025-1.887 0.075l0.082-0.005c-0.776-0.084-1.676-0.132-2.587-0.132-14.027 0-25.398 11.371-25.398 25.398 0 0.056 0 0.112 0.001 0.168v-0.009c-0.002 0.128-0.004 0.28-0.004 0.431 0 13.841 11.22 25.061 25.061 25.061 0.58 0 1.155-0.020 1.725-0.058l-0.077 0.004c0.553 0.046 1.197 0.072 1.847 0.072 13.134 0 23.781-10.647 23.781-23.781 0-1.056-0.069-2.096-0.202-3.116l0.013 0.12v-1.267zM758.69 826.961c-1.335 4.435-5.383 7.611-10.173 7.611s-8.837-3.175-10.153-7.536l-0.019-0.075z" />
<glyph unicode="&#xe914;" d="M798.114 837.133v0c2.73 4.658 7.712 7.737 13.413 7.737 0.653 0 1.296-0.040 1.928-0.119l-0.076 0.008c12.719 0 17.799-7.626 17.799-20.345v-29.251h-16.532v22.905c0 5.093 1.267 12.719-7.626 12.719-6.36 0-8.906-5.093-8.906-11.439v-24.158h-16.532v48.303h16.532z" />
<glyph unicode="&#xe915;" d="M876.962 828.241c-2.55 1.53-5.61 2.466-8.883 2.546h-0.023c-6.325 0-11.453-5.128-11.453-11.453s5.128-11.453 11.453-11.453v0c3.472 0.159 6.584 1.582 8.911 3.817l-0.005-0.004v-13.986c-3.364-1.375-7.259-2.286-11.333-2.541l-0.107-0.005c-0.216-0.007-0.47-0.011-0.725-0.011-13.655 0-24.724 11.069-24.724 24.724 0 0.255 0.004 0.509 0.012 0.762l-0.001-0.037c-0.002 0.128-0.004 0.28-0.004 0.431 0 13.841 11.22 25.061 25.061 25.061 0.58 0 1.155-0.020 1.725-0.058l-0.077 0.004c4.18-0.26 8.075-1.172 11.688-2.636l-0.249 0.089v-15.266z" />
<glyph unicode="&#xe916;" d="M936.731 816.788h-35.611c-0.020-0.231-0.032-0.501-0.032-0.773 0-5.209 4.223-9.432 9.432-9.432 0.272 0 0.541 0.012 0.807 0.034l-0.035-0.002c0.285-0.037 0.614-0.059 0.949-0.059 2.843 0 5.326 1.542 6.657 3.835l0.020 0.037h16.546c-2.991-9.686-11.865-16.602-22.354-16.602-0.635 0-1.264 0.025-1.887 0.075l0.082-0.005c-0.776-0.084-1.676-0.132-2.587-0.132-14.027 0-25.398 11.371-25.398 25.398 0 0.056 0 0.112 0.001 0.168v-0.009c-0.002 0.128-0.004 0.28-0.004 0.431 0 13.841 11.22 25.061 25.061 25.061 0.58 0 1.155-0.020 1.725-0.058l-0.077 0.004c0.553 0.046 1.197 0.072 1.847 0.072 13.134 0 23.781-10.647 23.781-23.781 0-1.056-0.069-2.096-0.202-3.116l0.013 0.12v-1.267zM921.465 826.961c-1.335 4.435-5.383 7.611-10.173 7.611s-8.837-3.175-10.153-7.536l-0.019-0.075z" />
<glyph unicode="&#xe917;" d="M876.962 21.989h-11.439v31.798h-7.64v8.893h27.971v-8.906h-8.906z" />
<glyph unicode="&#xe918;" d="M893.494 62.68h10.173l8.906-21.558 7.626 21.558h11.399l5.093-40.691h-10.173l-2.547 22.905-10.173-22.905h-3.759l-8.906 22.905-3.813-22.905h-10.186z" />
<glyph unicode="&#xe919;" glyph-name="icon_04" d="M0 732.444l512-568.889 512 568.889z" />
<glyph unicode="&#xe91a;" glyph-name="icon_05" d="M901.908 585.846h-47.262l122.092-122.092h-976.738v-31.508h976.738l-122.092-122.092h47.262l137.846 137.846z" />
<glyph unicode="&#xe91b;" glyph-name="icon_06" d="M996.527 220.722c-67.434 62.439-144.859 112.39-229.776 147.356l-22.478 9.99-94.907-89.912c-32.468 12.488-99.902 44.956-184.82 124.878-79.922 77.424-114.888 142.361-127.376 172.332l92.41 89.912-9.99 24.976c-37.463 82.42-89.912 157.346-154.849 219.785l-12.488 14.985-22.478-4.995c-74.927-17.483-147.356-49.951-212.293-92.41l-17.483-12.488v-22.478c2.498-44.956 29.971-287.22 304.702-549.463s524.488-287.22 571.941-289.717h19.98l12.488 17.483c44.956 62.439 77.424 129.873 97.405 204.8l4.995 22.478-14.985 12.488zM861.659 40.898c-67.434 7.493-277.229 49.951-504.507 267.239-224.78 214.79-269.737 412.098-279.727 479.532 47.454 27.473 97.405 49.951 149.854 64.937 44.956-47.454 82.42-102.4 112.39-159.844l-87.415-84.917 4.995-22.478c4.995-17.483 34.966-112.39 157.346-227.278 119.883-114.888 217.288-144.859 234.771-149.854l19.98-4.995 87.415 84.917c59.941-27.473 117.385-64.937 169.834-107.395-14.985-49.951-37.463-97.405-64.937-139.863z" />
<glyph unicode="&#xe91c;" glyph-name="icon_07" d="M585.956 618.667v91.022c0 45.511 5.689 73.956 68.267 73.956h91.022v176.356h-147.911c-170.667 0-210.489-91.022-210.489-238.933v-102.4h-130.844v-182.044h130.844v-523.378h193.422v523.378h142.222l22.756 182.044h-159.289z" />
<glyph unicode="&#xe91d;" glyph-name="icon_08" d="M1024 659.423c0 40.756-10.189 86.607-25.473 122.269s-35.662 66.229-61.134 91.701c-25.473 25.473-56.040 45.851-91.701 61.134-40.756 15.284-81.512 25.473-122.269 25.473-50.945 0-71.323 0-208.876 0s-157.93 0-213.97-5.095c-40.756 0-86.607-10.189-122.269-25.473-35.662-10.189-66.229-30.567-91.701-56.040s-45.851-56.040-61.134-91.701c-15.284-40.756-20.378-81.512-20.378-122.269-5.095-56.040-5.095-71.323-5.095-213.97s0-157.93 5.095-213.97c0-40.756 10.189-86.607 25.473-122.269s35.662-66.229 61.134-91.701c25.473-25.473 56.040-45.851 91.701-61.134 40.756-15.284 81.512-25.473 122.269-25.473 56.040 0 71.323-5.095 213.97-5.095s157.93 0 213.97 5.095c40.756 0 86.607 10.189 122.269 25.473 71.323 25.473 122.269 81.512 152.836 152.836 15.284 40.756 25.473 81.512 25.473 122.269 0 56.040 5.095 71.323 5.095 213.97s-15.284 157.93-15.284 213.97zM932.299 236.577c0-30.567-5.095-66.229-15.284-96.796-15.284-45.851-50.945-81.512-96.796-96.796-30.567-10.189-61.134-15.284-96.796-15.284-56.040 0-71.323-5.095-208.876-5.095s-152.836 0-208.876 5.095c-30.567 0-66.229 5.095-96.796 15.284-20.378 10.189-40.756 20.378-61.134 40.756-15.284 15.284-30.567 35.662-40.756 61.134-10.189 30.567-15.284 61.134-15.284 96.796 0 56.040-5.095 71.323-5.095 208.876s0 152.836 5.095 208.876c0 30.567 5.095 66.229 15.284 96.796 15.284 15.284 30.567 35.662 45.851 50.945s35.662 30.567 61.134 40.756c25.473 10.189 61.134 15.284 91.701 15.284 56.040 0 71.323 5.095 208.876 5.095s152.836 0 208.876-5.095c30.567 0 66.229-5.095 96.796-15.284 20.378-10.189 40.756-20.378 61.134-40.756 15.284-15.284 30.567-35.662 40.756-61.134 10.189-30.567 15.284-61.134 15.284-96.796 0-56.040 5.095-71.323 5.095-208.876s-10.189-147.741-10.189-203.781v0zM514.547 710.368c-147.741 0-264.915-117.174-264.915-264.915s117.174-264.915 264.915-264.915 264.915 117.174 264.915 264.915v0c0 147.741-122.269 264.915-264.915 264.915zM514.547 277.333c-96.796 0-173.214 76.418-173.214 173.214s76.418 173.214 173.214 173.214c96.796 0 173.214-76.418 173.214-173.214-5.095-96.796-81.512-173.214-173.214-173.214zM789.652 781.692c-35.662 0-61.134-25.473-61.134-61.134s25.473-61.134 61.134-61.134c35.662 0 61.134 25.473 61.134 61.134s-30.567 61.134-61.134 61.134z" />
<glyph unicode="&#xe91e;" glyph-name="icon_09" d="M993.28 693.76c-10.24 40.96-46.080 76.8-87.040 87.040-81.92 25.6-399.36 25.6-399.36 25.6s-317.44 0-399.36-20.48c-40.96-15.36-76.8-46.080-87.040-92.16-15.36-76.8-20.48-158.72-20.48-240.64s5.12-163.84 20.48-245.76c10.24-40.96 46.080-76.8 87.040-87.040 81.92-20.48 394.24-20.48 394.24-20.48s317.44 0 394.24 20.48c40.96 10.24 76.8 46.080 87.040 87.040 15.36 81.92 20.48 163.84 20.48 245.76 10.24 81.92 5.12 163.84-10.24 240.64zM404.48 299.52v302.080l261.12-153.6-261.12-148.48z" />
<glyph unicode="&#xe91f;" glyph-name="icon_10" d="M0 732.444l512-568.889 512 568.889z" />
<glyph unicode="&#xe920;" glyph-name="icon_11" d="M959.423 480.288c0 36.901-27.676 64.577-64.577 64.577h-295.207v295.207c0 36.901-27.676 64.577-64.577 64.577h-64.577c-27.676-9.225-46.126-36.901-55.351-64.577v-295.207h-295.207c-27.676-9.225-55.351-27.676-55.351-64.577v-64.577c0-18.45 9.225-27.676 18.45-46.126s27.676-18.45 46.126-18.45h295.207v-295.207c0-36.901 27.676-64.577 64.577-64.577h64.577c0 0 0 0 0 0 36.901 0 64.577 27.676 64.577 64.577v295.207h295.207c0 0 0 0 0 0 36.901 0 64.577 27.676 64.577 64.577l-18.45 64.577z" />
<glyph unicode="&#xe921;" glyph-name="icon_12" d="M989.867 561.778h-955.733c-22.756 0-34.133-11.378-34.133-34.133v-182.044c0-22.756 11.378-34.133 34.133-34.133h955.733c22.756 0 34.133 11.378 34.133 34.133v182.044c0 22.756-11.378 34.133-34.133 34.133z" />
<glyph unicode="&#xe922;" glyph-name="icon_13" d="M572.39 644.923v0c18.379 13.128 23.631 36.759 10.503 55.138s-36.759 21.005-52.513 10.503c-131.282-86.646-223.179-244.185-262.564-454.236-18.379-94.523-26.256-191.672-21.005-288.821 2.626-21.005 18.379-36.759 39.385-36.759h2.626c21.005 2.626 39.385 21.005 36.759 42.010 0 5.251-28.882 488.369 246.81 672.164zM874.338 944.246c-5.251 5.251-13.128 7.877-21.005 7.877-18.379 2.626-433.231 49.887-614.4-162.79-78.769-91.897-110.277-210.051-86.646-325.579 7.877-55.138 26.256-110.277 52.513-160.164v0c10.503-18.379 36.759-23.631 55.138-13.128s23.631 34.133 13.128 52.513c0 2.626-123.405 223.179 23.631 396.472 112.903 131.282 357.087 144.41 477.867 141.785-26.256-42.010-47.262-97.149-36.759-141.785 7.877-28.882 26.256-217.928-68.267-338.708-49.887-65.641-128.656-99.774-231.056-99.774-21.005 0-39.385-18.379-39.385-39.385s18.379-39.385 39.385-39.385c126.031 0 225.805 44.636 291.446 128.656 115.528 147.036 91.897 367.59 81.395 406.974-5.251 26.256 26.256 89.272 63.015 133.908 18.379 13.128 15.754 39.385 0 52.513z" />
<glyph unicode="&#xe923;" glyph-name="icon_14" d="M227.556 448l568.889-512v1024z" />
<glyph unicode="&#xe924;" glyph-name="icon_15" d="M227.556 960v-1024l568.889 512z" />
<glyph unicode="&#xe925;" glyph-name="icon_16" d="M0 960h292.571v-292.571h-292.571v292.571zM365.714 960h292.571v-292.571h-292.571v292.571zM731.429 960h292.571v-292.571h-292.571v292.571zM0 594.286h292.571v-292.571h-292.571v292.571zM365.714 594.286h292.571v-292.571h-292.571v292.571zM731.429 594.286h292.571v-292.571h-292.571v292.571zM0 228.571h292.571v-292.571h-292.571v292.571zM365.714 228.571h292.571v-292.571h-292.571v292.571zM731.429 228.571h292.571v-292.571h-292.571v292.571z" />
<glyph unicode="&#xe926;" glyph-name="icon_17" d="M0 896h256v-256h-256v256zM384 896h640v-128h-640v128zM0 576h256v-256h-256v256zM0 256h256v-256h-256v256zM384 704h640v-64h-640v64zM384 576h640v-128h-640v128zM384 384h640v-64h-640v64zM384 256h640v-128h-640v128zM384 64h640v-64h-640v64z" />
<glyph unicode="&#xe927;" glyph-name="icon_18" d="M0 896h256v-256h-256v256zM384 896v-256h640v256zM0 576h256v-256h-256v256zM0 256h256v-256h-256v256zM384 384v-64h640v256h-640zM384 64v-64h640v256h-640z" />
<glyph unicode="&#xe928;" glyph-name="icon_19" d="M512 960c-282.667 0-512-229.333-512-512s229.333-512 512-512 512 229.333 512 512-229.333 512-512 512zM512 0c-245.333 0-448 202.667-448 448s202.667 448 448 448c245.333 0 448-202.667 448-448s-202.667-448-448-448zM741.333 666.667l-261.333-368-202.667 149.333c-16 5.333-32 5.333-42.667-10.667s-5.333-32 5.333-42.667l224-170.667c0 0 0 0 0 0s0 0 0 0 5.333 0 5.333-5.333c0 0 0 0 0 0 5.333 0 5.333 0 10.667 0s5.333 0 10.667 0c0 0 5.333 0 5.333 0s5.333 5.333 5.333 5.333c0 0 5.333 0 5.333 5.333 0 0 0 0 0 0s0 0 0 0l282.667 394.667c10.667 16 10.667 37.333-5.333 48s-32 5.333-42.667-5.333z" />
<glyph unicode="&#xe929;" glyph-name="icon_20" horiz-adv-x="1050" d="M0 960v-1024h1050.256v1024h-1050.256zM614.4 881.231v-78.769h-183.795v78.769h183.795zM971.487 14.769h-892.718v866.462h273.067v-157.538h341.333v157.538h273.067v-866.462zM183.795 172.308h105.026v-78.769h-105.026v78.769zM341.333 172.308h105.026v-78.769h-105.026v78.769z" />
<glyph unicode="&#xe92a;" glyph-name="icon_21" horiz-adv-x="1047" d="M23.273 658.269h994.909v-52.364h-994.909v52.364zM325.818 710.633h-174.545v75.636h52.364v-23.273h75.636v23.273h52.364v-75.636zM896 710.633h-174.545v75.636h52.364v-23.273h75.636v23.273h52.364v-75.636zM971.636-63.185h-896c-40.727 0-75.636 34.909-75.636 75.636v773.818c0 40.727 34.909 75.636 75.636 75.636h75.636v52.364c0 29.091 23.273 52.364 52.364 52.364h75.636c29.091 0 52.364-23.273 52.364-52.364v-52.364h401.455v52.364c0 29.091 23.273 52.364 52.364 52.364h75.636c29.091 0 52.364-23.273 52.364-52.364v-52.364h75.636c40.727 0 75.636-34.909 75.636-75.636v-773.818c-17.455-40.727-52.364-75.636-93.091-75.636zM75.636 809.542c-11.636 0-23.273-11.636-23.273-23.273v-773.818c0-11.636 11.636-23.273 23.273-23.273h896c11.636 0 23.273 11.636 23.273 23.273v773.818c0 11.636-11.636 23.273-23.273 23.273h-122.182v98.909h-75.636v-98.909h-500.364v98.909h-75.636v-98.909h-122.182zM372.364 460.451h98.909v-52.364h-98.909v52.364zM576 460.451h98.909v-52.364h-98.909v52.364zM773.818 460.451h98.909v-52.364h-98.909v52.364zM174.545 338.269h98.909v-52.364h-98.909v52.364zM372.364 338.269h98.909v-52.364h-98.909v52.364zM576 338.269h98.909v-52.364h-98.909v52.364zM773.818 338.269h98.909v-52.364h-98.909v52.364zM174.545 210.269h98.909v-52.364h-98.909v52.364zM372.364 210.269h98.909v-52.364h-98.909v52.364zM576 210.269h98.909v-52.364h-98.909v52.364z" />
<glyph unicode="&#xe92b;" glyph-name="icon_22" d="M741.376 108.032c12.288 0 20.48 8.192 20.48 20.48v811.008c0 0 0 0 0 0 0 12.288-8.192 20.48-20.48 20.48h-552.96c-4.096 0-12.288-4.096-16.384-4.096l-81.92-86.016c-4.096-4.096-8.192-12.288-8.192-16.384v-724.992c0-12.288 8.192-20.48 20.48-20.48h638.976c0 0 0 0 0 0zM720.896 148.992h-598.016v696.32l73.728 73.728h524.288v-770.048zM909.312 828.928l-94.208 8.192c0 0 0 0 0 0-12.288 0-20.48-8.192-24.576-20.48 0-12.288 8.192-20.48 20.48-24.576l73.728-8.192-77.824-798.72-606.208 61.44v12.288c0 12.288-8.192 20.48-20.48 24.576-12.288 0-20.48-8.192-24.576-20.48l-4.096-32.768c0-12.288 8.192-20.48 20.48-24.576l651.264-61.44c12.288 0 20.48 8.192 20.48 20.48l81.92 843.776c4.096 8.192-8.192 20.48-16.384 20.48zM147.456 812.544c0-12.288 8.192-20.48 20.48-20.48h65.536c12.288 0 20.48 8.192 20.48 20.48v65.536c0 12.288-8.192 20.48-20.48 20.48 0 0 0 0 0 0-12.288 0-24.576-12.288-24.576-20.48v-40.96h-40.96c-12.288-4.096-20.48-12.288-20.48-24.576zM274.432 574.976h319.488c0 0 0 0 0 0 12.288 0 20.48 12.288 20.48 20.48 0 12.288-12.288 20.48-20.48 20.48h-319.488c0 0 0 0 0 0-12.288 0-20.48-12.288-20.48-20.48-4.096-8.192 8.192-20.48 20.48-20.48zM593.92 534.016h-319.488c0 0 0 0 0 0-12.288 0-20.48-12.288-20.48-20.48 0-12.288 12.288-20.48 20.48-20.48h319.488c0 0 0 0 0 0 12.288 0 20.48 12.288 20.48 20.48 0 12.288-8.192 20.48-20.48 20.48zM487.424 448h-212.992c-12.288 0-20.48-8.192-20.48-20.48s8.192-20.48 20.48-20.48h212.992c12.288 0 20.48 8.192 20.48 20.48s-8.192 20.48-20.48 20.48z" />
<glyph unicode="&#xe92c;" glyph-name="icon_23" d="M992.835 937.739l26.713-35.617c-129.113-106.852-249.322-231.513-347.27-365.078-115.757-142.47-213.704-298.296-293.843-458.574l-53.426-35.617c-31.165-22.261-62.33-44.522-93.496-71.235-13.357 40.070-26.713 75.687-40.070 111.304l-22.261 48.974c-22.261 53.426-48.974 106.852-80.139 151.374-22.261 31.165-48.974 53.426-84.591 66.783 35.617 44.522 89.043 75.687 146.922 84.591 35.617 0 80.139-53.426 124.661-155.826l17.809-53.426c89.043 146.922 195.896 284.939 320.557 409.6 111.304 115.757 240.417 218.157 378.435 302.748z" />
<glyph unicode="&#xe92d;" glyph-name="icon_24" d="M1024 448c0-282.77-229.23-512-512-512s-512 229.23-512 512c0 282.77 229.23 512 512 512s512-229.23 512-512z" />
<glyph unicode="&#xe92e;" glyph-name="icon_25" d="M512 960c-282.343 0-512-229.657-512-512s229.657-512 512-512c282.343 0 512 229.657 512 512s-229.657 512-512 512zM715.989 430.438l-298.554-191.831c-4.053-2.702-8.106-2.702-12.158-4.053-4.053 0-6.755 1.351-10.807 2.702-6.755 4.053-10.807 10.807-10.807 18.913v383.662c0 12.158 9.456 21.615 21.615 21.615 4.053 0 8.106-1.351 12.158-4.053l298.554-191.831c6.755-4.053 9.456-10.807 9.456-17.562s-4.053-13.509-9.456-17.562z" />
<glyph unicode="&#xe92f;" glyph-name="icon_26" d="M897.024 960h-667.648c-4.096 0-12.288-4.096-16.384-8.192l-102.4-102.4c-4.096-4.096-8.192-12.288-8.192-16.384v-868.352c0-16.384 12.288-28.672 24.576-28.672h770.048c12.288 0 24.576 12.288 24.576 24.576v974.848c0 12.288-12.288 24.576-24.576 24.576zM872.448-14.848h-720.896v835.584l86.016 86.016h630.784v-921.6zM180.224 783.872c0-16.384 12.288-28.672 24.576-28.672h77.824c16.384 0 24.576 12.288 24.576 28.672v77.824c0 12.288-12.288 24.576-24.576 24.576s-24.576-12.288-24.576-24.576v-49.152h-53.248c-12.288-4.096-24.576-16.384-24.576-28.672zM331.776 501.248h385.024c12.288 0 24.576 12.288 24.576 24.576s-12.288 24.576-24.576 24.576h-385.024c-12.288 0-24.576-12.288-24.576-24.576s12.288-24.576 24.576-24.576zM716.8 448h-385.024c-12.288 0-24.576-12.288-24.576-24.576s12.288-24.576 24.576-24.576h385.024c12.288 0 24.576 12.288 24.576 24.576s-12.288 24.576-24.576 24.576zM589.824 345.6h-258.048c-12.288 0-24.576-12.288-24.576-24.576s12.288-24.576 24.576-24.576h253.952c12.288 0 24.576 12.288 24.576 24.576s-8.192 24.576-20.48 24.576z" />
<glyph unicode="&#xe930;" glyph-name="icon_27" d="M512 434.787c-145.342 0-260.955 118.916-260.955 260.955s115.613 264.258 260.955 264.258 260.955-118.916 260.955-260.955-115.613-264.258-260.955-264.258zM512 860.903c-89.187 0-161.858-72.671-161.858-161.858s72.671-161.858 161.858-161.858c89.187 0 161.858 72.671 161.858 161.858s-72.671 161.858-161.858 161.858zM158.555-64c-69.368 0-125.523 56.155-125.523 125.523v72.671c0 343.535 360.052 343.535 478.968 343.535s478.968 0 478.968-343.535v-72.671c0-69.368-56.155-125.523-125.523-125.523h-706.89zM512 378.632c-267.561 0-379.871-72.671-379.871-244.439v-72.671c0-13.213 13.213-26.426 26.426-26.426h710.194c13.213 0 26.426 13.213 26.426 26.426v72.671c-3.303 168.465-115.613 244.439-383.174 244.439z" />
</font>
</defs>
</svg>
