<svg xmlns="http://www.w3.org/2000/svg" width="17.234" height="40" viewBox="0 0 17.234 40"><defs><style>.a,.b{fill:none;stroke:#8bd1e2;stroke-miterlimit:10;stroke-width:2px;}.a{stroke-linecap:round;}</style></defs><g transform="translate(-301 -208.313)"><path class="a" d="M305.976,242.209c-2.751-1.049-3.976-3.474-3.976-7.222,5.807,0,7.617,3.194,7.617,8.464" transform="translate(0 -4.146)"/><path class="a" d="M305.853,234.412c-2.751-1.049-3.793-3.663-3.793-7.412,5.807,0,7.566,3.183,7.566,8.453" transform="translate(-0.009 -2.919)"/><path class="a" d="M309.626,250.617c-5.807,0-7.566-2.348-7.566-7.617a12.782,12.782,0,0,1,5.027.835,4.4,4.4,0,0,1,2.539,4.232Z" transform="translate(-0.009 -5.378)"/><path class="a" d="M314.641,242.209c2.751-1.049,3.976-3.474,3.976-7.222-5.807,0-7.617,3.194-7.617,8.464" transform="translate(-1.383 -4.146)"/><path class="a" d="M314.773,234.412c2.752-1.049,3.793-3.663,3.793-7.412-5.807,0-7.566,3.183-7.566,8.453" transform="translate(-1.383 -2.919)"/><path class="a" d="M311,250.617c5.807,0,7.566-2.348,7.566-7.617a12.781,12.781,0,0,0-5.027.835A4.4,4.4,0,0,0,311,248.067Z" transform="translate(-1.383 -5.378)"/><line class="b" y2="16" transform="translate(309.617 232.313)"/><path class="a" d="M310.389,229.156s3.385-2.151,3.385-5.078S310.387,219,310.387,219,307,221.151,307,224.078s3.385,5.078,3.385,5.078Z" transform="translate(-0.768 -1.69)"/><line class="b" y1="8" transform="translate(316.617 214.313)"/><line class="b" y1="7" transform="translate(312.617 210.313)"/><line class="b" y1="8" transform="translate(302.617 214.313)"/><line class="b" y1="7" transform="translate(306.617 210.313)"/><line class="b" y1="7" transform="translate(309.617 208.313)"/></g></svg>