<svg xmlns="http://www.w3.org/2000/svg" width="39.387" height="33.27" viewBox="0 0 39.387 33.27"><defs><style>.a{fill:none;stroke:#8bd1e2;stroke-miterlimit:10;stroke-width:2px;}</style></defs><g transform="translate(-398.194 -1928.201)"><path class="a" d="M507.209,1943.328l-3.945-3.671h-2.687a17.171,17.171,0,0,1-3.457,1.916,4.416,4.416,0,0,1-4.823-1.189c1.565-1.655,3.127-3.237,3.127-3.237l3.028-3.063a3.17,3.17,0,0,1,2.07-.769h4.856c1.043,0,3.171,0,4.228-1.057l4.335-3.258" transform="translate(-83.472 0)"/><path class="a" d="M699.145,2056.445c4.844-4.448,2.73-5.505,4.844-7.619l1.227-1.227" transform="translate(-268.342 -105.998)"/><path class="a" d="M611.679,2063.845s5.482,5.755,7.067,7.12-.6,5-3.147,3c-1.522-1.3-6.411-5.985-6.411-5.985" transform="translate(-187.943 -120.517)"/><path class="a" d="M597.062,2142.893c-.466,1.106-2.348,3.7-4.746,1.891-1.522-1.3-4.683-4.293-4.683-4.293" transform="translate(-168.679 -189.02)"/><path class="a" d="M574.8,2176.324c-1.089,2.2-3,3.085-4.73,1.721-1.212-.954-3.055-2.839-3.055-2.839" transform="translate(-150.249 -220.047)"/><path class="a" d="M547.239,2205.3c-.656,1.628-2.532,2.682-4.052,1.735-.878-.547-2.352-1.6-2.352-1.6" transform="translate(-126.853 -246.943)"/><path class="a" d="M479.314,1942.243c-2.114-2.114-3.027-1.183-5.278-3.435L472,1937" transform="translate(-65.332 -7.15)"/><path class="a" d="M402.022,2053.755c-2.692-2.692.05-4.316-3.121-7.487" transform="translate(0 -104.808)"/><path class="a" d="M411.393,2115.945l-.011-.011a1.911,1.911,0,0,0-2.706-.045l-1.08,1.035a1.923,1.923,0,0,0,2.682,2.757l1.069-1.025A1.926,1.926,0,0,0,411.393,2115.945Z" transform="translate(-7.25 -166.55)"/><path class="a" d="M436.371,2125l-.011-.011a1.911,1.911,0,0,0-2.706-.045L430.514,2128a1.923,1.923,0,0,0,2.682,2.757l3.13-3.054A1.927,1.927,0,0,0,436.371,2125Z" transform="translate(-27.732 -174.638)"/><path class="a" d="M466.185,2148.559l-.011-.011a1.911,1.911,0,0,0-2.7-.067l-2.881,2.815a1.923,1.923,0,0,0,2.66,2.778l2.87-2.8A1.926,1.926,0,0,0,466.185,2148.559Z" transform="translate(-54.601 -195.689)"/><path class="a" d="M501.973,2181.777l-.011-.011a1.911,1.911,0,0,0-2.706-.031l-.74.717a1.923,1.923,0,0,0,2.7,2.742l.729-.706A1.926,1.926,0,0,0,501.973,2181.777Z" transform="translate(-88.517 -225.393)"/><path class="a" d="M637.136,2064.81c-2.515.517-3.155-.123-4.5-.965" transform="translate(-208.9 -120.517)"/></g></svg>