<svg xmlns="http://www.w3.org/2000/svg" width="48.245" height="32.726" viewBox="0 0 48.245 32.726"><defs><style>.a,.b{fill:none;stroke:#8bd1e2;stroke-width:2px;}.a{stroke-miterlimit:10;}.b{stroke-linejoin:round;}</style></defs><g transform="translate(-289.007 -229)"><path class="a" d="M299.872,242.18A4.938,4.938,0,0,1,295,236.96v-1.741a4.884,4.884,0,1,1,9.744,0v1.742A4.937,4.937,0,0,1,299.872,242.18Z" transform="translate(1.09)"/><path class="a" d="M290,257.617s.8-6.775,1.218-9.744S293.411,243,296.09,243h2.436l8.5,9.744h7.308s.544,4.872-3.654,4.872H303.4l-6.09-7.308" transform="translate(0 2.835)"/><path class="b" d="M305,249.308,309.872,242H331.8l-7.308,12.18H313.526" transform="translate(3.271 2.617)"/><line class="b" x2="39" transform="translate(298.252 260.726)"/></g></svg>