<svg xmlns="http://www.w3.org/2000/svg" width="27.331" height="33.838" viewBox="0 0 27.331 33.838"><defs><style>.a{fill:none;stroke:#8bd1e2;stroke-linecap:round;stroke-linejoin:round;stroke-width:2px;}</style></defs><g transform="translate(-375.112 -49.658)"><path class="a" d="M388.778,63.748a8.834,8.834,0,0,0,2.388-.4c5.938-1.629,11.108,2.633,10.149,9.929a22.27,22.27,0,0,1-3.454,8.632c-1.305,2.1-3.412,3.806-5.8,3.563-1.452-.148-2.233-.437-3.283-.437s-1.831.289-3.284.437c-2.388.243-4.493-1.467-5.8-3.563a22.282,22.282,0,0,1-3.453-8.632c-.959-7.3,4.211-11.558,10.149-9.929A8.834,8.834,0,0,0,388.778,63.748Z" transform="translate(0 -3.003)"/><path class="a" d="M380.7,74.829c-.891-3.918.577-6.547,2.405-7.829" transform="translate(-1.078 -4.004)"/><path class="a" d="M397.5,51a9.186,9.186,0,0,0-4.5,8.248V60" transform="translate(-4.222)"/><path class="a" d="M390.347,56.688s-3.241,1.748-5.779.851-3.721-4.1-3.721-4.1,2.932-1.747,5.47-.85S390.347,56.688,390.347,56.688Z" transform="translate(-1.181 -0.334)"/></g></svg>