<svg xmlns="http://www.w3.org/2000/svg" width="170.001" height="60.777"><defs><clipPath id="a"><path data-name="Rectangle 1217" d="M0 0h159.99v60.777H0z"/></clipPath></defs><g data-name="Group 2548"><g data-name="Group 2435"><path data-name="Path 1057" d="M127.2 46.604h-25.344V36.275h7.447V17.657h17.9v10.21h-7.567v8.408h7.567z"/><path data-name="Path 1058" d="M135.487 17.657v10.21h7.567v8.408h-7.567v10.33h24.5v-10.33h-6.6V17.657z"/><path data-name="Path 1059" d="M44.2 46.484H32.43l-2.763-7.327H14.654l-2.883 7.327H0v-.12l16.215-42.16h12.012zM17.777 30.629h8.888l-4.444-13.213z"/><g data-name="Group 2434"><g data-name="Group 2428" clip-path="url(#a)"><path data-name="Path 1060" d="M61.258 60.777c-7.327 0-15.495-3.844-16.335-11.05v-.12h11.53a3.73 3.73 0 0 0 1.8 2.162 7.842 7.842 0 0 0 2.883.721c5.645 0 6.486-3.964 6.486-8.168v-1.2a12.1 12.1 0 0 1-9.008 3.844c-8.166.119-14.172-6.127-14.172-14.655a15.993 15.993 0 0 1 4.084-10.93 14.264 14.264 0 0 1 10.69-4.685c3.723 0 6.606 1.321 8.528 3.964v-3h10.33v25.941c-.12 11.651-5.525 17.176-16.816 17.176m.24-35.313a6.149 6.149 0 0 0-6.486 6.366c0 3.844 2.642 6.366 6.486 6.366s6.486-2.522 6.486-6.366a6.149 6.149 0 0 0-6.486-6.366"/></g><g data-name="Group 2429" clip-path="url(#a)"><path data-name="Path 1061" d="M93.088 46.483h-10.33V17.656h10.33v4.684q2.882-5.044 9.37-5.044h2.04v9.969l-.12-.12a7.881 7.881 0 0 0-4.324-.961c-4.8 0-6.967 2.642-6.967 8.648z"/></g><g data-name="Group 2430" clip-path="url(#a)"><path data-name="Path 1062" d="M122.635 7.087a7.087 7.087 0 0 1-14.173 0A7.178 7.178 0 0 1 115.549 0a7.1 7.1 0 0 1 7.087 7.087"/></g><g data-name="Group 2431" clip-path="url(#a)"><path data-name="Path 1063" d="M154.585 7.087A7.087 7.087 0 1 1 147.499 0a7.1 7.1 0 0 1 7.087 7.087"/></g><g data-name="Group 2432" clip-path="url(#a)"><path data-name="Path 1064" d="M165.036 46.483h-.961v-2.762h-.721V43h2.4v.721h-.721z"/></g><g data-name="Group 2433" clip-path="url(#a)"><path data-name="Path 1065" d="M166.476 43h.961l.721 1.922.718-1.922h.961l.48 3.483h-.841l-.36-2.042-.841 2.042h-.36l-.841-2.042-.24 2.042h-.958z"/></g></g></g><path data-name="Path 1140" d="M164.699 46.706h-1.015v-2.82h-.677v-.789h2.482v.789h-.79z"/><path data-name="Path 1141" d="M166.165 43.097h.9l.79 1.917.677-1.917h1.015l.451 3.609h-.897l-.226-2.03-.9 2.03h-.338l-.79-2.03-.338 2.03h-.9z"/></g></svg>