<svg xmlns="http://www.w3.org/2000/svg" width="76" height="76"><defs><clipPath id="a"><path data-name="Rectangle 1225" d="M0 0h74.845v75.506H0z"/></clipPath></defs><g data-name="Group 2458"><path data-name="Rectangle 1224" fill="#c0311b" d="M0 0h76v76H0z"/><path data-name="Path 1066" d="M25.446 69.429H6.475v-7.645h5.663V47.91h13.308v7.645h-5.663v6.229h5.663z" fill="#fff"/><g data-name="Group 2457"><g data-name="Group 2436" clip-path="url(#a)" transform="translate(.246 .247)"><path data-name="Path 1067" d="M21.803 39.64a5.285 5.285 0 1 1-5.286-5.285 5.4 5.4 0 0 1 5.285 5.285" fill="#fff"/></g><g data-name="Group 2437" clip-path="url(#a)" transform="translate(.246 .247)"><path data-name="Path 1068" d="M31.429 61.537h5.663v-6.229h-5.663v-7.645h13.308v13.874H50.4v7.645H31.429z" fill="#fff"/></g><g data-name="Group 2438" clip-path="url(#a)" transform="translate(.246 .247)"><path data-name="Path 1069" d="M34.922 39.64a5.285 5.285 0 1 0 5.285-5.285 5.4 5.4 0 0 0-5.285 5.285" fill="#fff"/></g><g data-name="Group 2439" clip-path="url(#a)" transform="translate(.246 .247)"><path data-name="Path 1070" d="M13.591 11.043l-.378.944h-1.415l1.982-5.191h1.51l1.982 5.191h-1.416l-.378-.944zm.944-2.737l-.566 1.7h1.129z" fill="#fff"/></g><g data-name="Group 2440" clip-path="url(#a)" transform="translate(.246 .247)"><path data-name="Path 1071" d="M21.424 11.606a1.81 1.81 0 0 1-2.076 2.076c-.849 0-1.888-.378-1.982-1.321h1.416c0 .094.094.189.189.283a.567.567 0 0 0 .378.094c.661 0 .849-.472.849-1.038v-.189a1.563 1.563 0 0 1-1.133.472 1.661 1.661 0 0 1-1.7-1.793 1.815 1.815 0 0 1 1.794-1.884 1.2 1.2 0 0 1 1.038.472V8.4h1.227v3.206zm-2.831-1.416c0 .472.283.755.849.755a.832.832 0 0 0 .849-.755c0-.472-.283-.755-.849-.755a.688.688 0 0 0-.849.755" fill="#fff"/></g><g data-name="Group 2441" clip-path="url(#a)" transform="translate(.246 .247)"><path data-name="Path 1072" d="M23.501 8.967a1.232 1.232 0 0 1 1.133-.661h.283v1.227a1.2 1.2 0 0 0-.566-.094c-.661 0-.849.472-.849 1.038v1.416h-1.228V8.4h1.227z" fill="#fff"/></g><g data-name="Group 2442" clip-path="url(#a)" transform="translate(.246 .247)"><path data-name="Path 1073" d="M26.71 7.079a.661.661 0 1 1-.661-.661c.283-.094.661.283.661.661m-.094 4.814h-1.227V8.4h1.227z" fill="#fff"/></g><g data-name="Group 2443" clip-path="url(#a)" transform="translate(.246 .247)"><path data-name="Path 1074" d="M30.674 7.079a.661.661 0 1 1-.661-.661c.378-.094.661.283.661.661m0 4.814h-1.227V8.4h1.227z" fill="#fff"/></g><g data-name="Group 2444" clip-path="url(#a)" transform="translate(.246 .247)"><path data-name="Path 1075" d="M32.751 8.872a1.15 1.15 0 0 1 1.133-.566c.944 0 1.321.566 1.321 1.51v2.171h-1.227v-1.7c0-.378.094-.944-.566-.944-.472 0-.661.378-.661.849v1.793h-1.227V8.4h1.227z" fill="#fff"/></g><g data-name="Group 2445" clip-path="url(#a)" transform="translate(.246 .247)"><path data-name="Path 1076" d="M37.377 11.892h-1.228V9.438h-.472V8.4h.472V7.362h1.228V8.4h.661v1.038h-.661z" fill="#fff"/></g><g data-name="Group 2446" clip-path="url(#a)" transform="translate(.246 .247)"><path data-name="Path 1077" d="M42.095 10.382h-2.643a.7.7 0 0 0 .755.755.571.571 0 0 0 .566-.283h1.228a1.733 1.733 0 0 1-1.793 1.227 1.885 1.885 0 0 1-2.077-1.887 1.86 1.86 0 0 1 1.982-1.888 1.765 1.765 0 0 1 1.888 1.982v.094zm-1.133-.755a.787.787 0 0 0-1.51 0z" fill="#fff"/></g><g data-name="Group 2447" clip-path="url(#a)" transform="translate(.246 .247)"><path data-name="Rectangle 1236" fill="#fff" d="M42.661 6.229h1.227v5.757h-1.227z"/></g><g data-name="Group 2448" clip-path="url(#a)" transform="translate(.246 .247)"><path data-name="Rectangle 1238" fill="#fff" d="M44.737 6.229h1.227v5.757h-1.227z"/></g><g data-name="Group 2449" clip-path="url(#a)" transform="translate(.246 .247)"><path data-name="Path 1078" d="M48.135 7.079a.661.661 0 1 1-.661-.661c.378-.094.661.283.661.661m0 4.814h-1.227V8.4h1.227z" fill="#fff"/></g><g data-name="Group 2450" clip-path="url(#a)" transform="translate(.246 .247)"><path data-name="Path 1079" d="M52.759 11.606a1.81 1.81 0 0 1-2.076 2.076c-.849 0-1.888-.378-1.982-1.321h1.416c0 .094.094.189.189.283a.567.567 0 0 0 .378.094c.661 0 .849-.472.849-1.038v-.189a1.563 1.563 0 0 1-1.133.472 1.661 1.661 0 0 1-1.7-1.793 1.815 1.815 0 0 1 1.794-1.884 1.2 1.2 0 0 1 1.038.472V8.4h1.227v3.206zm-2.831-1.416c0 .472.283.755.849.755a.832.832 0 0 0 .849-.755c0-.472-.283-.755-.849-.755a.722.722 0 0 0-.849.755" fill="#fff"/></g><g data-name="Group 2451" clip-path="url(#a)" transform="translate(.246 .247)"><path data-name="Path 1080" d="M57.196 10.382h-2.643a.7.7 0 0 0 .755.755.571.571 0 0 0 .566-.283h1.228a1.733 1.733 0 0 1-1.793 1.227 1.885 1.885 0 0 1-2.077-1.887 1.86 1.86 0 0 1 1.982-1.888 1.765 1.765 0 0 1 1.888 1.982v.094zm-1.133-.755a.787.787 0 0 0-1.51 0z" fill="#fff"/></g><g data-name="Group 2452" clip-path="url(#a)" transform="translate(.246 .247)"><path data-name="Path 1081" d="M58.989 8.872a1.15 1.15 0 0 1 1.133-.566c.944 0 1.321.566 1.321 1.51v2.171h-1.227v-1.7c0-.378.094-.944-.566-.944-.472 0-.661.378-.661.849v1.793h-1.227V8.4h1.227z" fill="#fff"/></g><g data-name="Group 2453" clip-path="url(#a)" transform="translate(.246 .247)"><path data-name="Path 1082" d="M64.841 9.532a1.364 1.364 0 0 0-.661-.189.85.85 0 0 0 0 1.7 1.02 1.02 0 0 0 .661-.283v1.038a2.756 2.756 0 0 1-.849.189 1.835 1.835 0 0 1-1.888-1.888 1.86 1.86 0 0 1 1.982-1.888 2.756 2.756 0 0 1 .849.189v1.133z" fill="#fff"/></g><g data-name="Group 2454" clip-path="url(#a)" transform="translate(.246 .247)"><path data-name="Path 1083" d="M69.277 10.382h-2.643a.7.7 0 0 0 .755.755.571.571 0 0 0 .566-.283h1.228a1.733 1.733 0 0 1-1.793 1.227 1.885 1.885 0 0 1-2.077-1.887 1.86 1.86 0 0 1 1.982-1.888 1.765 1.765 0 0 1 1.888 1.982v.094zm-1.133-.755a.787.787 0 0 0-1.51 0z" fill="#fff"/></g><g data-name="Group 2455" clip-path="url(#a)" transform="translate(.246 .247)"><path data-name="Path 1084" d="M64.841 69.371h-.849v-2.36h-.567v-.66h2.076v.661h-.661z" fill="#fff"/></g><g data-name="Group 2456" clip-path="url(#a)" transform="translate(.246 .247)"><path data-name="Path 1085" d="M66.068 66.351h.755l.661 1.6.566-1.6h.846l.378 3.02h-.755l-.189-1.7-.755 1.7h-.279l-.661-1.7-.283 1.7h-.756z" fill="#fff"/></g></g></g></svg>