<svg xmlns="http://www.w3.org/2000/svg" width="39.693" height="41.539" viewBox="0 0 39.693 41.539"><defs><style>.a,.b{fill:none;stroke:#8bd1e2;stroke-miterlimit:10;stroke-width:2px;}.b{stroke-linecap:round;}</style></defs><g transform="translate(77.189 -321)"><path class="a" d="M-42.611,341V332.4c0-5-5.017-10.4-11.194-10.4S-65,327.407-65,332.4v7.236" transform="translate(-3.537)"/><line class="a" y2="3.966" transform="translate(-63.11 347.885)"/><line class="a" y2="3.886" transform="translate(-51.576 347.965)"/><rect class="a" width="9.595" height="3.838" transform="translate(-57.004 357.279) rotate(-45)"/><rect class="a" width="3.838" height="9.595" transform="translate(-67.18 353.208) rotate(-45)"/><path class="a" d="M0,0H.025A2.975,2.975,0,0,1,3,2.975V3A3,3,0,0,1,0,6H0A0,0,0,0,1,0,6V0A0,0,0,0,1,0,0Z" transform="translate(-68.36 342.112) rotate(180)"/><path class="a" d="M0,0H0A3,3,0,0,1,3,3v.025A2.975,2.975,0,0,1,.025,6H0A0,0,0,0,1,0,6V0A0,0,0,0,1,0,0Z" transform="translate(-46.36 336.112)"/><path class="b" d="M-55,330c0,4.626,8.972,10.539,13.865,10.843" transform="translate(-6.753 -2.572)"/><path class="a" d="M-44.039,342.327V344.5a11.829,11.829,0,0,1-5.4,9.991c-.038.022-.061.045-.1.066a5.71,5.71,0,0,1-5.8.013c-.055-.032-.125-.064-.18-.1A11.805,11.805,0,0,1-61,344.5v-4.749c.617-2.035,3.326-4.749,5.393-4.749" transform="translate(-4.823 -4.18)"/><path class="a" d="M-45,355.749h5.428a3.5,3.5,0,0,0,3.392-3.392V351" transform="translate(-9.968 -9.325)"/><rect class="a" width="4" height="3" rx="1.5" transform="translate(-55.36 347.112) rotate(-180)"/><path class="b" d="M-67.18,368l-3.856.857c-3.493.754-4.087,3.242-4.964,7.284" transform="translate(0 -14.792)"/><path class="b" d="M-34,368l3.856.857c3.493.754,4.087,3.242,4.963,7.284" transform="translate(-13.505 -14.792)"/></g></svg>