<?xml version="1.0" encoding="utf-8"?>
<!-- Generator: Adobe Illustrator 24.0.0, SVG Export Plug-In . SVG Version: 6.00 Build 0)  -->
<svg version="1.1" id="Warstwa_1" xmlns="http://www.w3.org/2000/svg" xmlns:xlink="http://www.w3.org/1999/xlink" x="0px" y="0px"
	 viewBox="0 0 57.7 39.1" style="enable-background:new 0 0 57.7 39.1;" xml:space="preserve">
<style type="text/css">
	.st0{fill:#8BD1E2;}
</style>
<g>
	<path class="st0" d="M45.3,29.6c-0.5-0.3-1.1-0.1-1.4,0.3l-2.7,4.3c-0.3,0.4-0.5,0.9-0.5,1.4v1.1l-1.2-0.6
		c-0.3-0.2-0.9-0.3-1.3-0.4l-4.4-0.4c-0.4,0-0.9,0-1.3,0.1l-2.7,0.7l-1-1.3c-0.4-0.5-1.2-0.7-1.7-0.4L26.3,35l-0.1-0.2
		c-0.2-0.4-0.6-0.8-0.9-1.1l-6.5-4.5c-0.3-0.2-0.7-0.3-1-0.2c-0.3,0.1-0.6,0.3-0.7,0.7L17,29.8c0,0.1-0.1,0.2-0.2,0.2l-0.5,0.1
		l-1.8-2.3c-0.3-0.4-1-0.5-1.4-0.2c-0.4,0.3-0.5,1-0.2,1.4l1.5,2c0.3,0.8,1.2,1.3,2.1,1.1l0.7-0.1c0.4-0.1,0.8-0.3,1.1-0.6l5.8,4
		c0.1,0.1,0.2,0.2,0.3,0.3l0.2,0.5c0.2,0.4,0.6,0.8,1.1,0.9s1,0.1,1.4-0.1l0.5-0.3l0.6,0.9c0.5,0.6,1.4,1,2.2,0.7l2.6-0.8
		c0.1,0,0.4-0.1,0.6,0l4.4,0.4c0.1,0,0.4,0.1,0.5,0.2l1.8,0.9c0.2,0.1,0.5,0.2,0.8,0.2c0.3,0,0.6-0.1,0.8-0.2
		c0.5-0.3,0.7-0.8,0.7-1.4l0-1.8c0-0.1,0-0.2,0.1-0.3l2.7-4.4C45.9,30.5,45.7,29.9,45.3,29.6z"/>
	<path class="st0" d="M4.8,15.7c0.5,0,0.9-0.3,1-0.8c0.1-0.5-0.2-1.1-0.7-1.2l-1.1-0.3l0,0c7.9-4.5,18.3-1.6,23.2,6.3
		c0.2,0.3,0.5,0.5,0.8,0.5c0.2,0,0.4,0,0.5-0.2c0.5-0.3,0.6-0.9,0.3-1.4C24.7,11.9,16.8,8.5,9.4,9.6l0.2-2.7l5.7-1.7
		c0.4-0.1,0.9-0.5,1.2-0.8l0.4-0.5c0.1-0.1,0.3-0.3,0.4-0.3l6-1.6L24,4.2c0.2,0.6,0.8,1,1.5,0.9l3.7-0.5c0.2,0,0.7,0,0.9,0L42,5.1
		l0.6,1.2c-5.9,1.9-11.1,6.4-13.2,12.3c-0.2,0.5,0.1,1.1,0.6,1.3c0.1,0,0.2,0.1,0.3,0.1c0.4,0,0.8-0.3,0.9-0.7
		c3-8.7,13.5-13.9,22.3-11.2l0,0l-1,0.5c-0.5,0.2-0.7,0.8-0.5,1.3c0.2,0.4,0.5,0.6,0.9,0.6c0.1,0,0.3,0,0.4-0.1l4.2-2.1l-0.5-0.9
		c0,0,0,0,0,0l-1.6-3.1c-0.3-0.5-0.9-0.7-1.4-0.4c-0.5,0.3-0.7,0.9-0.4,1.4l0.5,1l-0.2-0.1c-3.1-0.9-6.4-1-9.6-0.3l-0.6-1.4
		c-0.3-0.8-1-1.3-1.8-1.4L30.2,2.6c-0.4,0-0.9,0-1.3,0L25.7,3l-0.6-1.8c-0.3-0.9-1.3-1.4-2.2-1.2l-6.1,1.6c-0.6,0.1-1.2,0.6-1.5,1
		l-0.4,0.5c0,0-0.1,0.1-0.2,0.1L9,5C8.2,5.2,7.6,6,7.5,6.8L7.3,10c-1.5,0.4-3,1-4.3,1.7l-0.2,0.1l0.3-1.1c0.1-0.5-0.2-1.1-0.7-1.2
		c-0.5-0.1-1.1,0.2-1.2,0.7L0,14.6l4.6,1.1C4.6,15.7,4.7,15.7,4.8,15.7z"/>
	<path class="st0" d="M27,22.8c0.5,0.1,1.1-0.2,1.2-0.8c0.1-0.5-0.2-1.1-0.8-1.2c-5.9-1.3-11.8,0.2-16.3,3.6l-1.5-9
		c-0.1-0.4-0.3-0.9-0.5-1.3c-0.3-0.4-1-0.5-1.4-0.2c-0.4,0.3-0.5,1-0.2,1.4c0.1,0.1,0.2,0.3,0.2,0.4l1.6,9.3
		c0.1,0.3,0.2,0.5,0.3,0.7c-2.5,2.3-4.3,5.3-5.2,8.7l0,0.2l-0.6-1c-0.3-0.5-0.9-0.6-1.4-0.4c-0.5,0.3-0.6,0.9-0.4,1.4l1.8,3
		c0,0,0,0,0,0l0.5,0.9l4-2.5c0.5-0.3,0.6-0.9,0.3-1.4c-0.3-0.5-0.9-0.6-1.4-0.3l-1,0.6l0,0C8.6,26.3,17.9,20.8,27,22.8z"/>
	<path class="st0" d="M56.1,32.2c-0.5-0.2-1.1-0.1-1.3,0.4l-0.5,1l-0.1-0.4L54,33.1c-2.1-2.2-4.1-4.1-6.1-5.6c0-0.3-0.1-0.5-0.3-0.8
		l-2.1-5.5c0-0.1-0.1-0.4-0.1-0.5l0.1-2c0-0.8-0.4-1.5-1-1.8l1.3-1.5c0.5-0.5,0.7-1.4,0.5-2L46,11.5c-0.1-0.5-0.6-0.9-1.2-0.8
		c-0.5,0.1-0.9,0.6-0.8,1.2l0.4,2c0,0.1,0,0.2,0,0.2l-2.4,2.7l-0.6,1.2l0.9,0.4l1.3,0.3l-0.1,1.9c0,0.4,0.1,1,0.2,1.3l1.3,3.5
		c-4.8-3.1-9.5-4.4-14.5-4.2c-0.6,0-1,0.5-1,1c0,0.6,0.5,1,1,1c7.3-0.3,13.9,3,21.5,10.8l-0.7-0.4c-0.5-0.3-1.1-0.1-1.4,0.4
		c-0.3,0.5-0.1,1.1,0.4,1.4l4.1,2.2l2.1-4C56.8,33.1,56.6,32.5,56.1,32.2z"/>
</g>
</svg>
